<svg xmlns="http://www.w3.org/2000/svg" version="1.1" xmlns:xlink="http://www.w3.org/1999/xlink" xmlns:svgjs="http://svgjs.dev/svgjs" viewBox="0 0 800 800"><defs><linearGradient x1="50%" y1="0%" x2="50%" y2="100%" id="ffflurry-grad" gradientTransform="rotate(270)"><stop stop-color="hsl(290, 100%, 21%)" stop-opacity="1" offset="0%"></stop><stop stop-color="hsl(305, 77%, 50%)" stop-opacity="1" offset="45%"></stop><stop stop-color="hsl(305, 77%, 80%)" stop-opacity="1" offset="100%"></stop></linearGradient></defs><rect width="100%" height="100%" fill="hsl(290, 100%, 21%)"></rect><g fill="url(#ffflurry-grad)"><rect width="216" height="1" x="2" y="95.5" rx="0.5" transform="rotate(28, 110, 96)"></rect><rect width="45" height="1" x="277.5" y="181.5" rx="0.5" transform="rotate(28, 300, 182)"></rect><rect width="206" height="1" x="164" y="39.5" rx="0.5" transform="rotate(28, 267, 40)"></rect><rect width="283" height="1" x="522.5" y="519.5" rx="0.5" transform="rotate(28, 664, 520)"></rect><rect width="333" height="1" x="571.5" y="663.5" rx="0.5" transform="rotate(28, 738, 664)"></rect><rect width="59" height="1" x="580.5" y="759.5" rx="0.5" transform="rotate(28, 610, 760)"></rect><rect width="342" height="1" x="-17" y="552.5" rx="0.5" transform="rotate(28, 154, 553)"></rect><rect width="478" height="1" x="269" y="362.5" rx="0.5" transform="rotate(28, 508, 363)"></rect><rect width="69" height="1" x="348.5" y="714.5" rx="0.5" transform="rotate(28, 383, 715)"></rect><rect width="384" height="1" x="451" y="663.5" rx="0.5" transform="rotate(28, 643, 664)"></rect><rect width="197" height="1" x="314.5" y="120.5" rx="0.5" transform="rotate(28, 413, 121)"></rect><rect width="66" height="1" x="39" y="26.5" rx="0.5" transform="rotate(28, 72, 27)"></rect><rect width="195" height="1" x="18.5" y="411.5" rx="0.5" transform="rotate(28, 116, 412)"></rect><rect width="104" height="1" x="100" y="659.5" rx="0.5" transform="rotate(28, 152, 660)"></rect><rect width="168" height="1" x="410" y="117.5" rx="0.5" transform="rotate(28, 494, 118)"></rect><rect width="124" height="1" x="81" y="29.5" rx="0.5" transform="rotate(28, 143, 30)"></rect><rect width="286" height="1" x="293" y="256.5" rx="0.5" transform="rotate(28, 436, 257)"></rect><rect width="103" height="1" x="272.5" y="56.5" rx="0.5" transform="rotate(28, 324, 57)"></rect><rect width="292" height="1" x="598" y="33.5" rx="0.5" transform="rotate(28, 744, 34)"></rect><rect width="306" height="1" x="459" y="369.5" rx="0.5" transform="rotate(28, 612, 370)"></rect><rect width="309" height="1" x="279.5" y="441.5" rx="0.5" transform="rotate(28, 434, 442)"></rect><rect width="116" height="1" x="263" y="391.5" rx="0.5" transform="rotate(28, 321, 392)"></rect><rect width="109" height="1" x="170.5" y="244.5" rx="0.5" transform="rotate(28, 225, 245)"></rect><rect width="203" height="1" x="572.5" y="735.5" rx="0.5" transform="rotate(28, 674, 736)"></rect><rect width="435" height="1" x="436.5" y="261.5" rx="0.5" transform="rotate(28, 654, 262)"></rect><rect width="291" height="1" x="57.5" y="39.5" rx="0.5" transform="rotate(28, 203, 40)"></rect><rect width="52" height="1" x="417" y="748.5" rx="0.5" transform="rotate(28, 443, 749)"></rect><rect width="209" height="1" x="98.5" y="107.5" rx="0.5" transform="rotate(28, 203, 108)"></rect><rect width="172" height="1" x="48" y="757.5" rx="0.5" transform="rotate(28, 134, 758)"></rect><rect width="260" height="1" x="309" y="538.5" rx="0.5" transform="rotate(28, 439, 539)"></rect><rect width="183" height="1" x="219.5" y="498.5" rx="0.5" transform="rotate(28, 311, 499)"></rect><rect width="403" height="1" x="119.5" y="282.5" rx="0.5" transform="rotate(28, 321, 283)"></rect><rect width="179" height="1" x="470.5" y="468.5" rx="0.5" transform="rotate(28, 560, 469)"></rect><rect width="99" height="1" x="208.5" y="605.5" rx="0.5" transform="rotate(28, 258, 606)"></rect><rect width="236" height="1" x="454" y="668.5" rx="0.5" transform="rotate(28, 572, 669)"></rect><rect width="107" height="1" x="-15.5" y="418.5" rx="0.5" transform="rotate(28, 38, 419)"></rect><rect width="323" height="1" x="206.5" y="190.5" rx="0.5" transform="rotate(28, 368, 191)"></rect><rect width="132" height="1" x="683" y="111.5" rx="0.5" transform="rotate(28, 749, 112)"></rect><rect width="119" height="1" x="711.5" y="377.5" rx="0.5" transform="rotate(28, 771, 378)"></rect><rect width="281" height="1" x="268.5" y="335.5" rx="0.5" transform="rotate(28, 409, 336)"></rect><rect width="213" height="1" x="113.5" y="400.5" rx="0.5" transform="rotate(28, 220, 401)"></rect><rect width="95" height="1" x="709.5" y="272.5" rx="0.5" transform="rotate(28, 757, 273)"></rect><rect width="254" height="1" x="600" y="184.5" rx="0.5" transform="rotate(28, 727, 185)"></rect><rect width="216" height="1" x="408" y="650.5" rx="0.5" transform="rotate(28, 516, 651)"></rect><rect width="271" height="1" x="617.5" y="565.5" rx="0.5" transform="rotate(28, 753, 566)"></rect><rect width="106" height="1" x="684" y="458.5" rx="0.5" transform="rotate(28, 737, 459)"></rect><rect width="69" height="1" x="219.5" y="144.5" rx="0.5" transform="rotate(28, 254, 145)"></rect><rect width="56" height="1" x="17" y="168.5" rx="0.5" transform="rotate(28, 45, 169)"></rect><rect width="152" height="1" x="70" y="176.5" rx="0.5" transform="rotate(28, 146, 177)"></rect><rect width="340" height="1" x="418" y="572.5" rx="0.5" transform="rotate(28, 588, 573)"></rect><rect width="89" height="1" x="427.5" y="612.5" rx="0.5" transform="rotate(28, 472, 613)"></rect><rect width="274" height="1" x="247" y="58.5" rx="0.5" transform="rotate(28, 384, 59)"></rect><rect width="117" height="1" x="496.5" y="761.5" rx="0.5" transform="rotate(28, 555, 762)"></rect><rect width="105" height="1" x="78.5" y="276.5" rx="0.5" transform="rotate(28, 131, 277)"></rect><rect width="493" height="1" x="-196.5" y="561.5" rx="0.5" transform="rotate(28, 50, 562)"></rect><rect width="234" height="1" x="438" y="111.5" rx="0.5" transform="rotate(28, 555, 112)"></rect><rect width="193" height="1" x="98.5" y="477.5" rx="0.5" transform="rotate(28, 195, 478)"></rect><rect width="116" height="1" x="507" y="35.5" rx="0.5" transform="rotate(28, 565, 36)"></rect><rect width="110" height="1" x="391" y="169.5" rx="0.5" transform="rotate(28, 446, 170)"></rect><rect width="355" height="1" x="-131.5" y="286.5" rx="0.5" transform="rotate(28, 46, 287)"></rect><rect width="66" height="1" x="728" y="754.5" rx="0.5" transform="rotate(28, 761, 755)"></rect><rect width="465" height="1" x="42.5" y="738.5" rx="0.5" transform="rotate(28, 275, 739)"></rect><rect width="356" height="1" x="366" y="283.5" rx="0.5" transform="rotate(28, 544, 284)"></rect><rect width="293" height="1" x="-107.5" y="709.5" rx="0.5" transform="rotate(28, 39, 710)"></rect><rect width="260" height="1" x="362" y="203.5" rx="0.5" transform="rotate(28, 492, 204)"></rect><rect width="81" height="1" x="654.5" y="364.5" rx="0.5" transform="rotate(28, 695, 365)"></rect><rect width="32" height="1" x="668" y="782.5" rx="0.5" transform="rotate(28, 684, 783)"></rect><rect width="147" height="1" x="142.5" y="327.5" rx="0.5" transform="rotate(28, 216, 328)"></rect><rect width="33" height="1" x="10.5" y="63.5" rx="0.5" transform="rotate(28, 27, 64)"></rect><rect width="124" height="1" x="561" y="157.5" rx="0.5" transform="rotate(28, 623, 158)"></rect><rect width="217" height="1" x="397.5" y="741.5" rx="0.5" transform="rotate(28, 506, 742)"></rect><rect width="51" height="1" x="441.5" y="37.5" rx="0.5" transform="rotate(28, 467, 38)"></rect><rect width="374" height="1" x="464" y="60.5" rx="0.5" transform="rotate(28, 651, 61)"></rect><rect width="260" height="1" x="433" y="211.5" rx="0.5" transform="rotate(28, 563, 212)"></rect><rect width="280" height="1" x="216" y="613.5" rx="0.5" transform="rotate(28, 356, 614)"></rect></g></svg>