<?xml version="1.0" standalone="no"?>
<!DOCTYPE svg PUBLIC "-//W3C//DTD SVG 20010904//EN"
 "http://www.w3.org/TR/2001/REC-SVG-20010904/DTD/svg10.dtd">
<svg version="1.0" xmlns="http://www.w3.org/2000/svg"
 width="300.000000pt" height="300.000000pt" viewBox="0 0 300.000000 300.000000"
 preserveAspectRatio="xMidYMid meet">
<metadata>
Created by potrace 1.10, written by Peter Selinger 2001-2011
</metadata>
<g transform="translate(0.000000,300.000000) scale(0.100000,-0.100000)"
fill="#9333EA" stroke="none">
<path d="M790 2201 c-69 -21 -132 -75 -165 -141 -26 -50 -31 -152 -11 -230 32
-129 135 -300 265 -442 35 -39 56 -73 67 -108 20 -69 82 -130 158 -159 31 -11
65 -21 76 -21 11 0 64 -29 119 -65 335 -220 704 -310 894 -220 92 43 149 141
131 224 l-8 36 -4 -30 c-11 -95 -51 -159 -122 -195 -181 -92 -554 3 -885 226
-61 41 -104 63 -134 68 -99 16 -191 97 -191 168 0 14 -10 33 -22 44 -43 39
-166 193 -212 268 -125 199 -140 394 -40 488 57 53 118 73 233 73 95 0 100 1
65 12 -44 13 -176 15 -214 4z"/>
<path d="M861 2170 c-226 -46 -254 -291 -65 -577 76 -115 261 -304 399 -408
293 -220 581 -345 805 -348 117 -2 186 19 239 72 55 55 79 163 46 207 -13 17
-14 15 -15 -36 -1 -98 -51 -169 -139 -199 -19 -6 -73 -11 -121 -11 -379 0
-976 393 -1223 805 -46 78 -87 201 -87 262 1 84 52 161 125 187 171 63 496
-30 799 -227 49 -32 90 -56 93 -54 8 8 -112 100 -195 150 -95 57 -274 138
-358 161 -72 19 -241 28 -303 16z"/>
<path d="M993 2081 c-173 -45 -184 -212 -28 -446 177 -266 538 -538 858 -647
73 -25 114 -32 199 -36 95 -4 111 -2 153 18 53 25 88 82 83 133 -3 31 -3 31
-32 -22 -21 -40 -38 -58 -70 -72 -55 -25 -161 -25 -259 0 -89 23 -227 79 -227
92 0 9 204 15 365 10 78 -3 94 0 115 17 22 18 26 30 30 99 l5 78 60 3 c88 3
103 9 121 44 21 40 15 129 -11 158 -15 16 -31 20 -85 20 -49 0 -71 4 -80 15
-21 25 -1 34 84 36 71 2 82 5 103 27 31 33 33 137 4 173 -19 24 -22 24 -203
23 -100 0 -194 -1 -208 -1 -14 -1 -72 0 -130 2 l-106 3 -94 62 c-122 80 -272
152 -382 184 -95 27 -215 40 -265 27z m202 -52 c33 -6 103 -27 155 -46 103
-39 325 -146 335 -163 4 -7 -27 -10 -91 -10 l-97 0 -33 -35 -33 -35 -46 29
c-119 76 -307 53 -385 -46 l-22 -28 -18 23 c-30 36 -62 132 -63 189 -3 119 95
159 298 122z m134 -275 c63 -26 115 -87 122 -144 4 -30 5 -30 -81 -30 -57 0
-70 3 -70 16 0 8 -15 21 -34 29 -75 32 -160 -23 -118 -75 13 -16 40 -24 112
-36 156 -25 201 -60 208 -162 4 -56 -16 -122 -36 -122 -4 0 -32 20 -62 43 -41
31 -55 48 -55 67 0 21 -8 27 -47 40 -33 10 -66 33 -108 75 -71 70 -160 178
-160 194 0 22 32 61 68 83 78 48 178 56 261 22z m621 5 c0 -6 -56 -111 -125
-234 -69 -122 -125 -226 -125 -229 0 -3 56 -6 125 -6 l125 0 0 -70 0 -70 -200
0 c-196 0 -201 1 -239 25 l-39 24 110 198 c60 109 114 202 119 208 23 24 4 28
-106 22 l-115 -5 0 74 0 74 235 0 c162 0 235 -3 235 -11z m410 -63 l0 -75
-110 6 -110 6 0 -72 0 -71 100 0 100 0 0 -70 0 -70 -100 0 -100 0 0 -100 0
-100 -80 0 -80 0 0 310 0 310 190 0 190 0 0 -74z m-420 -215 c0 -153 1 -151
-65 -151 -18 0 -47 3 -65 6 -25 5 -31 11 -27 26 8 29 140 258 149 258 4 0 8
-63 8 -139z m-680 94 c11 -13 8 -15 -13 -15 -34 0 -58 10 -51 21 8 14 50 10
64 -6z m370 -1 c0 -11 -101 -193 -110 -199 -4 -3 -14 11 -21 32 -6 20 -29 56
-51 79 l-40 43 35 14 c19 8 38 20 41 26 7 11 146 16 146 5z"/>
</g>
</svg>
